Coordinates
version=1
nRows=24
nColumns=24
inDegrees=yes

Units are S.I. units (second, meters, Newtons, ...)
Angles are in degrees.

endheader
time	pelvis_tilt	pelvis_list	pelvis_rotation	pelvis_tx	pelvis_ty	pelvis_tz	hip_flexion_r	hip_adduction_r	hip_rotation_r	knee_angle_r	ankle_angle_r	subtalar_angle_r	mtp_angle_r	hip_flexion_l	hip_adduction_l	hip_rotation_l	knee_angle_l	ankle_angle_l	subtalar_angle_l	mtp_angle_l	lumbar_extension	lumbar_bending	lumbar_rotation
      4.36500000	    -12.53926565	      3.05230190	    -13.00328038	      1.88433345	     -0.03457438	     -0.39072184	     -3.16812784	     -1.03133389	      7.59491712	    -10.60846586	      7.16578590	      9.72483309	     15.62076133	     38.41104696	     -5.44176947	    -23.87638249	     -4.41181830	    -13.94152996	     12.89313768	     15.66009679	     11.91140562	     -2.14107992	     11.82314425
      4.37000000	    -12.65966662	      3.09715632	    -13.17747357	      1.89017115	     -0.03533999	     -0.39074492	     -3.18675856	     -1.17876478	      7.46060148	    -10.90006213	      7.05178115	     10.29435313	     15.91035879	     38.68899695	     -5.58671962	    -24.11835612	     -4.79200984	    -13.74086839	     13.02115537	     15.46208029	     12.02389878	     -2.17422160	     11.92397264
      4.37500000	    -12.68414500	      3.08178125	    -13.30916295	      1.89599321	     -0.03599738	     -0.39079550	     -3.36286405	     -1.27021813	      7.49740832	    -11.12437567	      6.86761075	     10.55054776	     16.01680895	     38.86302368	     -5.73708701	    -24.17616486	     -5.22031606	    -13.64143751	     12.93061948	     15.42226997	     12.00285332	     -2.19160301	     11.97219351
      4.38000000	    -12.78461915	      3.12757876	    -13.41518592	      1.90205874	     -0.03674428	     -0.39091232	     -3.43376466	     -1.42577930	      7.38078445	    -11.38333990	      6.67941446	     10.99014724	     16.30849068	     39.11696056	     -5.82845318	    -24.24603353	     -5.71621127	    -13.46781779	     12.86583852	     15.24274670	     12.10809621	     -2.24735257	     12.01169915
      4.38500000	    -12.78811532	      3.11629682	    -13.55895574	      1.90806638	     -0.03734645	     -0.39096066	     -3.62306196	     -1.53059458	      7.44359550	    -11.63263842	      6.43732248	     11.21893949	     16.37447421	     39.24129297	     -5.97368564	    -24.25986009	     -6.22975963	    -13.35673302	     12.71818345	     15.25790309	     12.08348806	     -2.26736684	     12.05933139
      4.39000000	    -12.88123616	      3.16457264	    -13.68915863	      1.91427020	     -0.03806217	     -0.39105249	     -3.68238144	     -1.69719362	      7.30899586	    -11.92592233	      6.21301488	     11.70868851	     16.66421591	     39.45580284	     -6.07088421	    -24.23988404	     -6.79509793	    -13.18318290	     12.55632721	     15.10402606	     12.19287272	     -2.32117900	     12.15577330
      4.39500000	    -12.88213006	      3.15513709	    -13.83599862	      1.92041578	     -0.03863862	     -0.39112095	     -3.86317880	     -1.81169042	      7.36776946	    -12.19633945	      5.92880182	     11.96178163	     16.73951609	     39.55076624	     -6.20789203	    -24.20927214	     -7.37249119	    -13.06809298	     12.40335316	     15.12240135	     12.17335293	     -2.34309011	     12.20805363
      4.40000000	    -12.96413513	      3.21246502	    -13.96999019	      1.92677109	     -0.03933466	     -0.39123309	     -3.91563415	     -1.99711771	      7.21054017	    -12.52416486	      5.67013864	     12.47139405	     17.04475391	     39.71770037	     -6.28336860	    -24.12831937	     -7.97438398	    -12.88945452	     12.22089460	     14.98507593	     12.28313289	     -2.40508238	     12.33595120
      4.40500000	    -12.98652895	      3.21996199	    -14.12752880	      1.93311479	     -0.03992303	     -0.39132630	     -4.04784199	     -2.13785844	      7.19014683	    -12.83430686	      5.34050419	     12.82568025	     17.23300853	     39.79029026	     -6.39682186	    -24.04878096	     -8.56865513	    -12.73466460	     12.05748966	     14.95153601	     12.30919461	     -2.42909540	     12.41941379
      4.41000000	    -13.01070989	      3.23437626	    -14.29226045	      1.93953527	     -0.04048756	     -0.39145175	     -4.16988017	     -2.29135432	      7.21164217	    -13.15663724	      4.98311758	     13.19882699	     17.35880900	     39.83901572	     -6.49624856	    -23.99615214	     -9.14763245	    -12.61612692	     11.90747807	     14.95930569	     12.34400482	     -2.45181276	     12.49272221
      4.41500000	    -13.05585037	      3.26869574	    -14.46268314	      1.94605033	     -0.04108468	     -0.39161340	     -4.23856580	     -2.47210213	      7.14339726	    -13.52673808	      4.62551237	     13.68970590	     17.55281896	     39.88430174	     -6.57122529	    -23.92918326	     -9.70933332	    -12.49455676	     11.74852160	     14.95012300	     12.41397217	     -2.47792810	     12.63128488
      4.42000000	    -13.14666621	      3.38307942	    -14.56655015	      1.95281164	     -0.04178119	     -0.39186120	     -4.24534408	     -2.74159625	      6.88092901	    -13.90419057	      4.25790619	     14.30296311	     18.01389336	     39.96749958	     -6.52431353	    -23.84835652	    -10.24714885	    -12.40491971	     11.54862783	     14.87166759	     12.57977530	     -2.59001560	     12.69702931
      4.42500000	    -13.18971375	      3.45042389	    -14.73704199	      1.95949695	     -0.04236127	     -0.39205404	     -4.29173113	     -2.96803227	      6.77968645	    -14.29179222	      3.81500921	     14.79366094	     18.40310134	     39.95916982	     -6.54076122	    -23.78306365	    -10.74276857	    -12.40043045	     11.32498813	     14.88592543	     12.67279331	     -2.64943374	     12.82091939
      4.43000000	    -13.23768420	      3.52967742	    -14.90011806	      1.96624056	     -0.04292983	     -0.39227978	     -4.31454166	     -3.20988227	      6.66714251	    -14.70731091	      3.35323489	     15.31035267	     18.74630001	     39.93601722	     -6.53107331	    -23.74068423	    -11.19619564	    -12.51431801	     11.07020311	     14.95285093	     12.77649117	     -2.71845359	     12.93472820
      4.43500000	    -13.28863623	      3.62909215	    -15.05865433	      1.97302538	     -0.04348597	     -0.39253254	     -4.31000320	     -3.47629214	      6.53951948	    -15.15243715	      2.87143457	     15.85110076	     19.08982551	     39.90389684	     -6.48925367	    -23.72004543	    -11.61145406	    -12.77383105	     10.71882796	     15.04441102	     12.88990063	     -2.80592634	     13.05338790
      4.44000000	    -13.34164318	      3.74547091	    -15.21488330	      1.97984387	     -0.04401424	     -0.39279861	     -4.27994977	     -3.76167584	      6.40994410	    -15.62453878	      2.35876744	     16.39316464	     19.41698443	     39.86423113	     -6.42236152	    -23.71556842	    -11.99059239	    -13.19023090	     10.26483610	     15.14106966	     13.01169954	     -2.91109064	     13.18056842
      4.44500000	    -13.39028372	      3.88706849	    -15.35326099	      1.98666317	     -0.04450931	     -0.39309493	     -4.21752017	     -4.07634973	      6.21434520	    -16.14188273	      1.81920353	     16.94448524	     19.82572390	     39.82134333	     -6.31096140	    -23.70185926	    -12.33327904	    -13.81311900	      9.63792912	     15.27716716	     13.13510511	     -3.04952753	     13.24291580
      4.45000000	    -13.42719469	      4.01045078	    -15.46761033	      1.99344642	     -0.04493564	     -0.39346924	     -4.15254748	     -4.37893374	      6.01584268	    -16.67120264	      1.18742460	     17.50043847	     20.36149258	     39.77304664	     -6.18912993	    -23.64380389	    -12.65832669	    -14.60435189	      8.85393320	     15.46230742	     13.22483817	     -3.17641229	     13.32190760
      4.45500000	    -13.48844258	      4.21990226	    -15.58799873	      2.00027176	     -0.04533363	     -0.39376511	     -4.00672154	     -4.75545857	      5.84948163	    -17.26467938	      0.58206594	     18.01069676	     20.70843176	     39.76408857	     -6.00379796	    -23.62427277	    -12.99087122	    -15.45851879	      7.99776705	     15.44068847	     13.37797085	     -3.39121802	     13.41703640
      4.46000000	    -13.53956093	      4.43174752	    -15.68251861	      2.00706661	     -0.04565681	     -0.39410892	     -3.84267931	     -5.13662929	      5.65153527	    -17.89364510	     -0.08959527	     18.51687842	     21.07383175	     39.76334397	     -5.79126790	    -23.51568742	    -13.34264789	    -16.36213614	      6.99887036	     15.36730965	     13.51209863	     -3.61815337	     13.48456445
      4.46500000	    -13.58540616	      4.66028666	    -15.75506959	      2.01382266	     -0.04590846	     -0.39446553	     -3.64799871	     -5.53380333	      5.43265257	    -18.56348426	     -0.82181299	     19.01228035	     21.46566691	     39.78280040	     -5.54825831	    -23.32429986	    -13.73721970	    -17.24863169	      5.92329475	     15.18782774	     13.63940532	     -3.87335650	     13.53935716
      4.47000000	    -13.63197020	      4.91952121	    -15.82972935	      2.02061711	     -0.04608017	     -0.39479533	     -3.41505251	     -5.96036189	      5.22331014	    -19.26828718	     -1.63812757	     19.47774282	     21.81911321	     39.81301688	     -5.27629941	    -23.06300110	    -14.16929070	    -18.01644233	      4.83128209	     14.87831042	     13.78711886	     -4.16014022	     13.61265774
      4.47500000	    -13.66680882	      5.17143306	    -15.82103171	      2.02726804	     -0.04622376	     -0.39523009	     -3.15312243	     -6.38163050	      4.88296937	    -20.04616028	     -2.49518178	     19.95188108	     22.31787488	     39.88437007	     -4.95661638	    -22.67065842	    -14.68140623	    -18.71257225	      3.72020110	     14.45728649	     13.88416115	     -4.47696590	     13.57277747
      4.48000000	    -13.70620883	      5.45861020	    -15.84204623	      2.03402403	     -0.04627757	     -0.39560193	     -2.85499845	     -6.83943468	      4.60576229	    -20.83365791	     -3.48110510	     20.40010483	     22.76101117	     39.95332430	     -4.62275977	    -22.26538292	    -15.22151668	    -19.19604923	      2.69382357	     13.96432278	     14.02438706	     -4.81367531	     13.60705363
